# xmcd
#
# Track frame offsets: 
#        182
#        13400
#        26145
#        38912
#        52697
#        64672
#        76420
#        89377
#        101655
#        113032
#        129022
#        139927
#        155175
#        164795
#        175065
#        189005
#        200590
#        212025
#        224475
#        235787
#        245672
#        257370
#        270112
#        282120
#        294175
#        307870
#
# Disc length: 4264 seconds
#
# Revision: 3
# Processed by: cddbd v1.5.2PL0 Copyright (c) Steve Scherf et al.
# Submitted via: ExactAudioCopy v0.99pb4
#
DISCID=6910a61a
DTITLE=Teddy Hill and his Orchestra - 1935-1937  w. Dizzy Gillespie, R
DTITLE=oy Eldridge, Bill Coleman, Dicky Wells, Frank Newton, Sam Allen
DTITLE=, Chu Berry ...[Classics 645]
DYEAR=1992
DGENRE=Jazz
TTITLE0=Lookie, Lookie, Lookie Here Comes Cookie (02-26-35)
TTITLE1=Got Me Doin' Things (02-26-35)
TTITLE2=When the Robin Sings His Song Again (02-26-35)
TTITLE3=When Love Knocks at Your Heart (02-26-35)
TTITLE4=Uptown Rhapsody (04-01-36)
TTITLE5=At the Rug Cutter's Ball  (05-04-36)
TTITLE6=Blue Rhythm Fantasy (05-04-36)
TTITLE7=Passionette (05-04-36)
TTITLE8=The Love Bug Will Bite You (03-26-37)
TTITLE9=Would You Like to Buy a Dream?  (03-26-37)
TTITLE10=Big Boy Blue  (03-26-37)
TTITLE11=Where Is the Sun?  (03-26-37)
TTITLE12=The Harlem Twister (The New Sensation)  (03-26-37)
TTITLE13=My Marie  (03-26-37)
TTITLE14=I Know Now  (04-23-37)
TTITLE15=The Lady Who Couldn't Be Kissed (04-23-37)
TTITLE16=(Have You Forgotten) The You and Me That Used to Be? (04-23-3
TTITLE16=7)
TTITLE17=A Study in Brown (04-23-37)
TTITLE18=Twilight in Turkey (04-23-37)
TTITLE19=China Boy (04-23-37)
TTITLE20=San Anton' (05-17-37)
TTITLE21=I'm Happy, Darling, Dancing with You (05-17-37)
TTITLE22=Yours and Mine (05-17-37)
TTITLE23=I'm Feeling Like a Million (05-17-37)
TTITLE24=King Porter Stomp (05-17-37)
TTITLE25=Blue Rhythm Fantasy (05-17-37)
EXTD=Teddy Hill with His NBC Orchestra, featuring Roy Eldridge, Bill C
EXTD=oleman, Dizzy Gillespie, Dickie Wells, Russell Procope, Chu Berry
EXTD=and others\n YEAR: 1935
EXTT0=
EXTT1=
EXTT2=
EXTT3=
EXTT4=
EXTT5=
EXTT6=
EXTT7=
EXTT8=
EXTT9=
EXTT10=
EXTT11=
EXTT12=
EXTT13=
EXTT14=
EXTT15=
EXTT16=
EXTT17=
EXTT18=
EXTT19=
EXTT20=
EXTT21=
EXTT22=
EXTT23=
EXTT24=
EXTT25=
PLAYORDER=
